<?xml version="1.0" encoding="utf-8"?>
<!-- Generator: Adobe Illustrator 27.3.1, SVG Export Plug-In . SVG Version: 6.00 Build 0)  -->
<svg version="1.1" id="Warstwa_1" xmlns="http://www.w3.org/2000/svg" xmlns:xlink="http://www.w3.org/1999/xlink" x="0px" y="0px"
	 viewBox="0 0 100 100" style="enable-background:new 0 0 100 100;" xml:space="preserve">
<style type="text/css">
	.st0{fill:#64AA53;}
	.st1{fill:#FFFFFF;}
</style>
<g id="Warstwa_1_00000098187477555259318310000003951734608966645667_">
	<path class="st0" d="M86.96,38.54c0,32.09-36.71,60.38-36.71,60.38S12.22,70.93,12.22,38.54c0-20.64,16.73-37.37,37.37-37.37
		S86.96,17.9,86.96,38.54z"/>
</g>
<path class="st1" d="M68.35,55.78h-36.7c-3.33,0-6.04-2.7-6.04-6.04V29.67c0-3.33,2.7-6.04,6.04-6.04h36.7
	c3.33,0,6.04,2.7,6.04,6.04v20.08C74.39,53.08,71.69,55.78,68.35,55.78z"/>
<circle class="st1" cx="52.55" cy="39.71" r="10.51"/>
<path class="st0" d="M52.55,52.72c-7.18,0-13.01-5.84-13.01-13.01S45.38,26.7,52.55,26.7c7.18,0,13.01,5.84,13.01,13.01
	S59.73,52.72,52.55,52.72z M52.55,31.7c-4.42,0-8.01,3.59-8.01,8.01s3.59,8.01,8.01,8.01s8.01-3.59,8.01-8.01S56.97,31.7,52.55,31.7
	z"/>
<path class="st0" d="M34.62,32.22h-2.07c-1.38,0-2.5-1.12-2.5-2.5s1.12-2.5,2.5-2.5h2.07c1.38,0,2.5,1.12,2.5,2.5
	S36,32.22,34.62,32.22z"/>
<path class="st1" d="M61.71,23.64H43.39l0.74-3.85c0.42-2.16,2.31-3.73,4.52-3.73h7.87c2.32,0,4.29,1.69,4.64,3.98L61.71,23.64z"/>
</svg>
