<?xml version="1.0" encoding="utf-8"?>
<!-- Generator: Adobe Illustrator 27.3.1, SVG Export Plug-In . SVG Version: 6.00 Build 0)  -->
<svg version="1.1" xmlns="http://www.w3.org/2000/svg" xmlns:xlink="http://www.w3.org/1999/xlink" x="0px" y="0px"
	 viewBox="0 0 100 100" style="enable-background:new 0 0 100 100;" xml:space="preserve">
<style type="text/css">
	.st0{fill:#00BDD2;}
	.st1{display:none;opacity:0.35;fill:#FFFFFF;}
	.st2{fill:#FFFFFF;}
	.st3{fill:none;stroke:#FFFFFF;stroke-width:5;stroke-miterlimit:10;}
</style>
<g id="Warstwa_1">
	<path class="st0" d="M87,38.5c0,32.1-36.7,60.4-36.7,60.4s-38-28-38-60.4C12.2,17.9,29,1.2,49.6,1.2S87,17.9,87,38.5z"/>
	<circle class="st1" cx="49.6" cy="38.8" r="27.6"/>
</g>
<g id="Warstwa_2">
	<g>
		<path class="st0" d="M34.1,47c-0.8,0-1.5-0.3-2-0.9c-0.5-0.6-0.7-1.4-0.6-2.2l3.3-19c0.2-1.3,1.3-2.2,2.6-2.2h30.1
			c1.5,0,2.6,1.2,2.6,2.6v19c0,1.5-1.2,2.6-2.6,2.6H34.1z"/>
		<path class="st2" d="M67.5,25.2c0.1,0,0.1,0.1,0.1,0.1v19c0,0.1-0.1,0.1-0.1,0.1H34.1c0,0-0.1,0-0.1-0.1c0-0.1,0-0.1,0-0.1l3.3-19
			c0-0.1,0.1-0.1,0.1-0.1H67.5 M67.5,20.2H37.4c-2.5,0-4.6,1.8-5.1,4.3l-3.3,19c-0.6,3.2,1.9,6,5.1,6h33.4c2.8,0,5.1-2.3,5.1-5.1
			v-19C72.7,22.5,70.4,20.2,67.5,20.2L67.5,20.2z"/>
	</g>
	<path class="st2" d="M68.7,49.5H31.3c-2.2,0-4-1.8-4-4v-6.7c0-2.2,1.8-4,4-4h37.4c2.2,0,4,1.8,4,4v6.7
		C72.7,47.7,70.9,49.5,68.7,49.5z"/>
	<line class="st3" x1="46.2" y1="22.6" x2="46.2" y2="39.1"/>
	<line class="st3" x1="58.6" y1="22.6" x2="58.6" y2="39.1"/>
	<g>
		<path class="st2" d="M39.5,55.2c-3.2,0-5.8-2.6-5.8-5.8c0-3.2,2.6-5.8,5.8-5.8s5.8,2.6,5.8,5.8C45.3,52.6,42.7,55.2,39.5,55.2z"/>
		<path class="st0" d="M39.5,45.2c2.4,0,4.3,1.9,4.3,4.3s-1.9,4.3-4.3,4.3s-4.3-1.9-4.3-4.3S37.2,45.2,39.5,45.2 M39.5,42.2
			c-4,0-7.3,3.3-7.3,7.3s3.3,7.3,7.3,7.3s7.3-3.3,7.3-7.3S43.5,42.2,39.5,42.2L39.5,42.2z"/>
	</g>
	<g>
		<path class="st2" d="M61.8,55.2c-3.2,0-5.8-2.6-5.8-5.8c0-3.2,2.6-5.8,5.8-5.8s5.8,2.6,5.8,5.8C67.5,52.6,65,55.2,61.8,55.2z"/>
		<path class="st0" d="M61.8,45.2c2.4,0,4.3,1.9,4.3,4.3s-1.9,4.3-4.3,4.3s-4.3-1.9-4.3-4.3S59.4,45.2,61.8,45.2 M61.8,42.2
			c-4,0-7.3,3.3-7.3,7.3s3.3,7.3,7.3,7.3s7.3-3.3,7.3-7.3S65.8,42.2,61.8,42.2L61.8,42.2z"/>
	</g>
</g>
</svg>
