<?xml version="1.0" encoding="utf-8"?>
<!-- Generator: Adobe Illustrator 27.3.1, SVG Export Plug-In . SVG Version: 6.00 Build 0)  -->
<svg version="1.1" xmlns="http://www.w3.org/2000/svg" xmlns:xlink="http://www.w3.org/1999/xlink" x="0px" y="0px"
	 viewBox="0 0 100 100" style="enable-background:new 0 0 100 100;" xml:space="preserve">
<style type="text/css">
	.st0{fill:#D60000;}
	.st1{display:none;opacity:0.35;fill:#FFFFFF;}
	.st2{fill:#FFFFFF;}
	.st3{fill:none;stroke:#FFFFFF;stroke-width:5;stroke-linecap:round;stroke-miterlimit:10;}
</style>
<g id="Warstwa_1">
	<path class="st0" d="M87,38.5c0,32.1-36.7,60.4-36.7,60.4s-38-28-38-60.4C12.2,17.9,29,1.2,49.6,1.2S87,17.9,87,38.5z"/>
	<circle class="st1" cx="49.6" cy="38.8" r="27.6"/>
</g>
<g id="Warstwa_2">
	<path class="st2" d="M50,18.5c-9.9,0-18.3,4.9-21.3,11.7c-1.1,2.5,0.7,5.3,3.5,5.3h35.6c2.7,0,4.6-2.8,3.5-5.3
		C68.3,23.4,59.9,18.5,50,18.5z"/>
	<path class="st3" d="M29.6,40c0,0,3.9-1.4,7.5-0.2c3.6,1.2,4.9,0.2,7.9-0.2c3-0.4,3.3-0.6,7.2,0.4c3.9,1,4.6-0.4,8.3-0.8
		c3.7-0.4,3.9,0.3,6.2,0.8c2.3,0.5,3.9-0.5,3.9-0.5"/>
	<path class="st2" d="M66.8,53.2H33.1c-1.2,0-2.3-1.1-2.5-2.6l-0.4-2.8c-0.3-2,0.9-3.9,2.5-3.9h34.6c1.6,0,2.8,1.9,2.5,3.9l-0.4,2.8
		C69.1,52.1,68.1,53.2,66.8,53.2z"/>
</g>
</svg>
