<?xml version="1.0" encoding="utf-8"?>
<!-- Generator: Adobe Illustrator 27.3.1, SVG Export Plug-In . SVG Version: 6.00 Build 0)  -->
<svg version="1.1" xmlns="http://www.w3.org/2000/svg" xmlns:xlink="http://www.w3.org/1999/xlink" x="0px" y="0px"
	 viewBox="0 0 100 100" style="enable-background:new 0 0 100 100;" xml:space="preserve">
<style type="text/css">
	.st0{fill:#D60000;}
	.st1{display:none;opacity:0.35;fill:#FFFFFF;}
	.st2{fill:#FFFFFF;}
</style>
<g id="Warstwa_1">
	<path class="st0" d="M87,38.5c0,32.1-36.7,60.4-36.7,60.4s-38-28-38-60.4C12.2,17.9,29,1.2,49.6,1.2S87,17.9,87,38.5z"/>
	<circle class="st1" cx="49.6" cy="38.8" r="27.6"/>
</g>
<g id="Warstwa_2">
	<path class="st2" d="M55.5,29.4V16.1c0-2.1-1.7-3.8-3.8-3.8h-3.5c-2.1,0-3.8,1.7-3.8,3.8v13.3c0,1-0.4,2.1-1.2,2.8l-5.4,5
		c-0.8,0.7-1.2,1.7-1.2,2.8v21c0,2.1,1.7,3.8,3.8,3.8h19c2.1,0,3.8-1.7,3.8-3.8V40c0-1-0.4-2.1-1.2-2.8l-5.4-5
		C56,31.5,55.5,30.5,55.5,29.4z"/>
</g>
</svg>
