<?xml version="1.0" encoding="utf-8"?>
<!-- Generator: Adobe Illustrator 27.3.1, SVG Export Plug-In . SVG Version: 6.00 Build 0)  -->
<svg version="1.1" xmlns="http://www.w3.org/2000/svg" xmlns:xlink="http://www.w3.org/1999/xlink" x="0px" y="0px"
	 viewBox="0 0 100 100" style="enable-background:new 0 0 100 100;" xml:space="preserve">
<style type="text/css">
	.st0{fill:#D60000;}
	.st1{display:none;opacity:0.35;fill:#FFFFFF;}
	.st2{fill:#FFFFFF;}
	.st3{fill:none;stroke:#D60000;stroke-width:3;stroke-linecap:round;stroke-miterlimit:10;}
</style>
<g id="Warstwa_1">
	<path class="st0" d="M87,38.5c0,32.1-36.7,60.4-36.7,60.4s-38-28-38-60.4C12.2,17.9,29,1.2,49.6,1.2S87,17.9,87,38.5z"/>
	<circle class="st1" cx="49.6" cy="38.8" r="27.6"/>
</g>
<g id="Warstwa_2">
	<g>
		<path class="st2" d="M45,37.5l-17.3,3.5c-2.2,0.4-4.2-1.6-3.8-3.6c0.7-1.4,1.9-2.4,1.9-3.1c0.1-1.5-1.6-2.2-0.1-4.6
			c0.6-1,1.5-1.6,1.5-2.1c0-0.7-1-1.3-1.2-2.7c-0.4-2.5,2.8-3.3,4.7-2.2l15.2,9C48.5,33.2,47.9,37,45,37.5z"/>
	</g>
	<g>
		<circle class="st2" cx="51.1" cy="35.5" r="12.5"/>
	</g>
	<g>
		<path class="st2" d="M55.9,39.4l15.2,9c1.9,1.1,4.5-0.1,4.7-2.2c-0.2-1.6-1-2.9-0.8-3.6c0.4-1.4,2.2-1.5,1.6-4.3
			c-0.2-1.1-0.9-2-0.8-2.5c0.2-0.7,1.4-0.8,2.1-2.2c1.2-2.3-1.6-4.1-3.8-3.6l-17.3,3.5C54,34.1,53.4,37.9,55.9,39.4z"/>
	</g>
	<line class="st3" x1="64" y1="37.6" x2="70.3" y2="40.7"/>
	<line class="st3" x1="32.2" y1="29.9" x2="38.6" y2="33.1"/>
	<line class="st3" x1="31.6" y1="34.6" x2="38.6" y2="33.2"/>
	<line class="st3" x1="64.2" y1="37.5" x2="71.2" y2="36.1"/>
</g>
</svg>
