<?xml version="1.0" encoding="utf-8"?>
<!-- Generator: Adobe Illustrator 27.3.1, SVG Export Plug-In . SVG Version: 6.00 Build 0)  -->
<svg version="1.1" xmlns="http://www.w3.org/2000/svg" xmlns:xlink="http://www.w3.org/1999/xlink" x="0px" y="0px"
	 viewBox="0 0 100 100" style="enable-background:new 0 0 100 100;" xml:space="preserve">
<style type="text/css">
	.st0{fill:#64AA53;}
	.st1{display:none;opacity:0.39;fill:#FFFFFF;}
	.st2{fill:#FFFFFF;}
	.st3{fill:none;stroke:#FFFFFF;stroke-width:4;stroke-linecap:round;stroke-miterlimit:10;}
</style>
<g id="Warstwa_1">
	<path class="st0" d="M86.96,38.54c0,32.09-36.71,60.38-36.71,60.38S12.22,70.93,12.22,38.54c0-20.64,16.73-37.37,37.37-37.37
		S86.96,17.9,86.96,38.54z"/>
	<circle class="st1" cx="49.59" cy="38.81" r="27.59"/>
</g>
<g id="Warstwa_2">
	<rect x="46.04" y="30.06" class="st2" width="7.59" height="30.41"/>
	<line class="st3" x1="37.92" y1="60.47" x2="61.75" y2="60.47"/>
	<path class="st2" d="M60.71,50.71H39.3c-3.59,0-6.02-3.65-4.64-6.96l11.36-27.32c1.76-4.22,7.78-4.1,9.36,0.19l10.05,27.32
		C66.63,47.23,64.2,50.71,60.71,50.71z"/>
</g>
</svg>
