<?xml version="1.0" encoding="utf-8"?>
<!-- Generator: Adobe Illustrator 27.3.1, SVG Export Plug-In . SVG Version: 6.00 Build 0)  -->
<svg version="1.1" xmlns="http://www.w3.org/2000/svg" xmlns:xlink="http://www.w3.org/1999/xlink" x="0px" y="0px"
	 viewBox="0 0 100 100" style="enable-background:new 0 0 100 100;" xml:space="preserve">
<style type="text/css">
	.st0{fill:#64AA53;}
	.st1{display:none;opacity:0.39;fill:#FFFFFF;}
	.st2{fill:none;stroke:#FFFFFF;stroke-width:5;stroke-linecap:round;stroke-miterlimit:10;}
</style>
<g id="Warstwa_1">
	<path class="st0" d="M86.96,38.54c0,32.09-36.71,60.38-36.71,60.38S12.22,70.93,12.22,38.54c0-20.64,16.73-37.37,37.37-37.37
		S86.96,17.9,86.96,38.54z"/>
	<circle class="st1" cx="49.59" cy="38.81" r="27.59"/>
</g>
<g id="Warstwa_2">
	<line class="st2" x1="33.14" y1="43.6" x2="65.55" y2="43.6"/>
	<line class="st2" x1="59.81" y1="52.33" x2="72.61" y2="52.33"/>
	<line class="st2" x1="39.36" y1="61.06" x2="52.15" y2="61.06"/>
	<path class="st2" d="M35.05,29.84c3.35-6.8,11.67-4.57,14.29,3.11v15.61"/>
	<line class="st2" x1="27.39" y1="52.33" x2="40.19" y2="52.33"/>
	<path class="st2" d="M63.64,29.84c-1.56-6.61-12.32-6.94-14.29,3.11v15.61"/>
	<path class="st2" d="M63.64,19.94c-1.56-6.61-12.32-6.94-14.29,3.11v15.61"/>
</g>
</svg>
