<?xml version="1.0" encoding="utf-8"?>
<!-- Generator: Adobe Illustrator 27.3.1, SVG Export Plug-In . SVG Version: 6.00 Build 0)  -->
<svg version="1.1" xmlns="http://www.w3.org/2000/svg" xmlns:xlink="http://www.w3.org/1999/xlink" x="0px" y="0px"
	 viewBox="0 0 100 100" style="enable-background:new 0 0 100 100;" xml:space="preserve">
<style type="text/css">
	.st0{fill:#1D56FF;}
	.st1{display:none;opacity:0.39;fill:#1D56FF;enable-background:new    ;}
	.st2{fill:#FFFFFF;}
</style>
<g id="Warstwa_1">
	<g id="Warstwa_1_00000078005188123056169380000016053883607370337431_">
		<path class="st0" d="M87,38.5c0,32.1-36.7,60.4-36.7,60.4s-38-28-38-60.4C12.2,17.9,29,1.2,49.6,1.2S87,17.9,87,38.5z"/>
		<circle class="st1" cx="49.6" cy="38.8" r="27.6"/>
	</g>
</g>
<g id="Warstwa_2">
	<path class="st2" d="M53,56.9H32.5c-2.5,0-4.5-2-4.5-4.5V39.4c0-2.5,2-4.5,4.5-4.5H53c2.5,0,4.5,2,4.5,4.5v13.1
		C57.4,54.9,55.4,56.9,53,56.9z"/>
	<path class="st2" d="M69,53.6l-11.7-5c-2.7-1.1-2.7-4.4,0-5.5l11.7-5c2.4-1,5.2,0.5,5.2,2.7v9.9C74.2,53.1,71.4,54.6,69,53.6z"/>
	<circle class="st2" cx="33" cy="26.3" r="7.2"/>
	<circle class="st2" cx="51.1" cy="24.7" r="8.8"/>
	<circle class="st0" cx="51.1" cy="20.3" r="2"/>
	<circle class="st0" cx="55.6" cy="24.7" r="2"/>
	<circle class="st0" cx="51.1" cy="29" r="2"/>
	<circle class="st0" cx="46.2" cy="24.7" r="2"/>
	<circle class="st0" cx="32.8" cy="21.9" r="1.4"/>
	<circle class="st0" cx="36.8" cy="26.1" r="1.4"/>
	<circle class="st0" cx="32.8" cy="30" r="1.4"/>
	<circle class="st0" cx="29.2" cy="26.1" r="1.4"/>
</g>
</svg>
