<?xml version="1.0" encoding="utf-8"?>
<!-- Generator: Adobe Illustrator 27.3.1, SVG Export Plug-In . SVG Version: 6.00 Build 0)  -->
<svg version="1.1" id="Warstwa_1" xmlns="http://www.w3.org/2000/svg" xmlns:xlink="http://www.w3.org/1999/xlink" x="0px" y="0px"
	 viewBox="0 0 100 100" style="enable-background:new 0 0 100 100;" xml:space="preserve">
<style type="text/css">
	.st0{fill:#64AA53;}
	.st1{fill:none;stroke:#FFFFFF;stroke-width:6;stroke-linecap:round;stroke-miterlimit:10;}
	.st2{fill:#FFFFFF;}
	.st3{fill:none;stroke:#64AA53;stroke-width:5;stroke-linecap:round;stroke-miterlimit:10;}
</style>
<g id="Warstwa_1_00000105422509686131510250000012499883448241207682_">
	<path class="st0" d="M87.9,38.5c0,32.1-36.7,60.4-36.7,60.4s-38-28-38-60.4c0-20.6,16.7-37.4,37.4-37.4S87.9,17.9,87.9,38.5z"/>
</g>
<line class="st1" x1="31.7" y1="55.9" x2="68.6" y2="55.9"/>
<path class="st2" d="M61.2,21.8L56,19.6c-3.2-0.8-6.8,1-8.7,3.6c-0.2,0.3-0.4,0.6-0.5,0.7c-1.1,1.4-2.7,2.6-2.9,4.4l-3.2,25.8
	c-0.2,1.7,1.1,3.2,2.9,3.2h25c1.7,0,3.1-1.5,2.9-3.2l-3-25.7c-0.2-1.8-1.3-2.5-2.3-3.9C65.4,23.9,62.1,21.8,61.2,21.8z"/>
<path class="st2" d="M40.6,36.7l-1.1,0.2c-2.8,0-7.4,4.9-8.1,7.6l-2.8,11.4l19-0.1L55.1,30H43.6l-0.1,1.4
	C43.1,34,43.4,35.2,40.6,36.7z"/>
<line class="st3" x1="43.7" y1="50.9" x2="56" y2="50.9"/>
</svg>
