<?xml version="1.0" encoding="utf-8"?>
<!-- Generator: Adobe Illustrator 27.3.1, SVG Export Plug-In . SVG Version: 6.00 Build 0)  -->
<svg version="1.1" xmlns="http://www.w3.org/2000/svg" xmlns:xlink="http://www.w3.org/1999/xlink" x="0px" y="0px"
	 viewBox="0 0 100 100" style="enable-background:new 0 0 100 100;" xml:space="preserve">
<style type="text/css">
	.st0{fill:#AA669F;}
	.st1{display:none;}
	.st2{display:inline;fill:none;stroke:#FF9EF2;stroke-miterlimit:10;}
	.st3{fill:none;stroke:#FFFFFF;stroke-width:4;stroke-linecap:round;stroke-miterlimit:10;}
	.st4{fill:#FFFFFF;}
</style>
<g id="Warstwa_1">
	<path class="st0" d="M86.96,38.54c0,32.09-36.71,60.38-36.71,60.38S12.22,70.93,12.22,38.54c0-20.64,16.73-37.37,37.37-37.37
		S86.96,17.9,86.96,38.54z"/>
</g>
<g id="Warstwa_2" class="st1">
	<rect x="25.61" y="20.07" class="st2" width="48.77" height="39.72"/>
</g>
<g id="Warstwa_3">
	<line class="st3" x1="50" y1="14.85" x2="50" y2="44.44"/>
	<line class="st3" x1="42.6" y1="22.74" x2="57.4" y2="22.74"/>
	<polygon class="st4" points="63.78,62.39 36.22,62.39 36.22,42.52 50,30.76 63.78,42.52 	"/>
	<line class="st3" x1="50" y1="30.76" x2="36.22" y2="42.52"/>
	<line class="st3" x1="50" y1="30.76" x2="63.78" y2="42.52"/>
	<path class="st0" d="M50,51.44L50,51.44c-2.6,0-4.7,2.1-4.7,4.7v6.52h9.4v-6.52C54.7,53.55,52.6,51.44,50,51.44z"/>
</g>
</svg>
