<?xml version="1.0" encoding="utf-8"?>
<!-- Generator: Adobe Illustrator 27.3.1, SVG Export Plug-In . SVG Version: 6.00 Build 0)  -->
<svg version="1.1" id="Warstwa_1" xmlns="http://www.w3.org/2000/svg" xmlns:xlink="http://www.w3.org/1999/xlink" x="0px" y="0px"
	 viewBox="0 0 100 100" style="enable-background:new 0 0 100 100;" xml:space="preserve">
<style type="text/css">
	.st0{fill:#1D56FF;}
	.st1{display:none;opacity:0.39;fill:#1D56FF;enable-background:new    ;}
	.st2{fill:#FFFFFF;}
	.st3{fill:none;stroke:#1D56FF;stroke-width:4;stroke-linecap:round;stroke-miterlimit:10;}
</style>
<g id="Warstwa_1_00000078005188123056169380000016053883607370337431_">
	<path class="st0" d="M87,38.5c0,32.1-36.7,60.4-36.7,60.4s-38-28-38-60.4C12.2,17.9,29,1.2,49.6,1.2S87,17.9,87,38.5z"/>
	<circle class="st1" cx="49.6" cy="38.8" r="27.6"/>
</g>
<g id="Warstwa_2_00000077285705849817130070000013288870063469349036_">
	<path class="st2" d="M43.6,56.4H29.7c-2.8,0-5-2.2-5-5V27.1c0-2.8,2.2-5,5-5h7.8c6.2,0,11.1,5,11.1,11.1v18.2
		C48.6,54.2,46.3,56.4,43.6,56.4z"/>
	<path class="st2" d="M56.4,56.4h13.9c2.8,0,5-2.2,5-5V27.1c0-2.8-2.2-5-5-5h-7.8c-6.2,0-11.1,5-11.1,11.1v18.2
		C51.4,54.2,53.7,56.4,56.4,56.4z"/>
	<line class="st3" x1="31.8" y1="31.5" x2="41.9" y2="31.5"/>
	<line class="st3" x1="31.8" y1="39.3" x2="41.9" y2="39.3"/>
	<line class="st3" x1="31.8" y1="47.1" x2="41.9" y2="47.1"/>
	<line class="st3" x1="58.3" y1="31.5" x2="68.4" y2="31.5"/>
	<line class="st3" x1="58.3" y1="39.3" x2="68.4" y2="39.3"/>
	<line class="st3" x1="58.3" y1="47.1" x2="68.4" y2="47.1"/>
</g>
</svg>
