<?xml version="1.0" encoding="utf-8"?>
<!-- Generator: Adobe Illustrator 27.3.1, SVG Export Plug-In . SVG Version: 6.00 Build 0)  -->
<svg version="1.1" xmlns="http://www.w3.org/2000/svg" xmlns:xlink="http://www.w3.org/1999/xlink" x="0px" y="0px"
	 viewBox="0 0 100 100" style="enable-background:new 0 0 100 100;" xml:space="preserve">
<style type="text/css">
	.st0{fill:#D60000;}
	.st1{display:none;opacity:0.35;fill:#FFFFFF;}
	.st2{fill:#FFFFFF;}
	.st3{fill:none;stroke:#FFFFFF;stroke-width:4;stroke-miterlimit:10;}
	.st4{fill:#D60000;stroke:#D60000;stroke-width:4;stroke-linecap:round;stroke-miterlimit:10;}
</style>
<g id="Warstwa_1">
	<path class="st0" d="M87,38.5c0,32.1-36.7,60.4-36.7,60.4s-38-28-38-60.4C12.2,17.9,29,1.2,49.6,1.2S87,17.9,87,38.5z"/>
	<circle class="st1" cx="49.6" cy="38.8" r="27.6"/>
</g>
<g id="Warstwa_2">
	<path class="st2" d="M62.7,55.1c3.4-6.1,5.8-14.2,6.6-23.5c0.3-3.8-2-7.2-5-7.2H32.6c-3,0-5.3,3.3-5,7.2c0.8,9.2,3.2,17.4,6.6,23.5
		c1,1.7,2.5,2.7,4.1,2.7h20.2C60.2,57.8,61.8,56.8,62.7,55.1z"/>
	<path class="st3" d="M73,46.3c-4.3,4.3-15.2,1.9-16.5-0.9c-1.3-2.8,2.1-7.1,7.7-9.8s11.1-2.5,12.4,0.3C77.9,38.7,75.8,43.5,73,46.3
		z"/>
	<line class="st4" x1="34" y1="29.7" x2="63.4" y2="29.7"/>
</g>
</svg>
