<?xml version="1.0" encoding="utf-8"?>
<!-- Generator: Adobe Illustrator 27.3.1, SVG Export Plug-In . SVG Version: 6.00 Build 0)  -->
<svg version="1.1" xmlns="http://www.w3.org/2000/svg" xmlns:xlink="http://www.w3.org/1999/xlink" x="0px" y="0px"
	 viewBox="0 0 100 100" style="enable-background:new 0 0 100 100;" xml:space="preserve">
<style type="text/css">
	.st0{fill:#D60000;}
	.st1{display:none;opacity:0.35;fill:#FFFFFF;}
	.st2{fill:#FFFFFF;}
</style>
<g id="Warstwa_1">
	<path class="st0" d="M87,38.5c0,32.1-36.7,60.4-36.7,60.4s-38-28-38-60.4C12.2,17.9,29,1.2,49.6,1.2S87,17.9,87,38.5z"/>
	<circle class="st1" cx="49.6" cy="38.8" r="27.6"/>
</g>
<g id="Warstwa_2">
	<circle class="st2" cx="54.8" cy="25.5" r="9.8"/>
	<g>
		<path class="st2" d="M42.5,37.7c-5.4,0-9.8-4.4-9.8-9.8s4.4-9.8,9.8-9.8s9.8,4.4,9.8,9.8S47.9,37.7,42.5,37.7z"/>
		<path class="st0" d="M42.5,20.1c4.3,0,7.8,3.5,7.8,7.8s-3.5,7.8-7.8,7.8s-7.8-3.5-7.8-7.8S38.2,20.1,42.5,20.1 M42.5,16.1
			c-6.5,0-11.8,5.3-11.8,11.8S36,39.7,42.5,39.7s11.8-5.3,11.8-11.8S49,16.1,42.5,16.1L42.5,16.1z"/>
	</g>
	<g>
		<path class="st2" d="M50,68.9c-1.8,0-3.4-1-4.3-2.6L31.2,39.1c-0.8-1.5-0.8-3.3,0.1-4.8s2.4-2.3,4.1-2.3h29c1.7,0,3.3,0.9,4.1,2.3
			s0.9,3.2,0.1,4.8L54.3,66.4C53.4,67.9,51.8,68.9,50,68.9z"/>
		<path class="st0" d="M64.5,34c2.1,0,3.5,2.3,2.5,4.2L52.5,65.4c-0.5,1-1.5,1.5-2.5,1.5s-2-0.5-2.5-1.5L33,38.1
			c-1-1.9,0.4-4.2,2.5-4.2H64.5 M64.5,30h-29c-2.4,0-4.6,1.2-5.9,3.3c-1.2,2.1-1.3,4.6-0.2,6.7L44,67.3c1.2,2.2,3.5,3.6,6,3.6
			s4.8-1.4,6-3.6L70.5,40c1.1-2.1,1.1-4.6-0.2-6.7C69.1,31.2,66.9,30,64.5,30L64.5,30z"/>
	</g>
</g>
</svg>
