<?xml version="1.0" encoding="utf-8"?>
<!-- Generator: Adobe Illustrator 27.3.1, SVG Export Plug-In . SVG Version: 6.00 Build 0)  -->
<svg version="1.1" xmlns="http://www.w3.org/2000/svg" xmlns:xlink="http://www.w3.org/1999/xlink" x="0px" y="0px"
	 viewBox="0 0 100 100" style="enable-background:new 0 0 100 100;" xml:space="preserve">
<style type="text/css">
	.st0{fill:#1D56FF;}
	.st1{display:none;opacity:0.39;fill:#1D56FF;enable-background:new    ;}
	.st2{fill:#FFFFFF;}
	.st3{fill:none;stroke:#FFFFFF;stroke-width:5;stroke-linecap:round;stroke-miterlimit:10;}
</style>
<g id="Warstwa_1">
	<g id="Warstwa_1_00000078005188123056169380000016053883607370337431_">
		<path class="st0" d="M87,38.5c0,32.1-36.7,60.4-36.7,60.4s-38-28-38-60.4C12.2,17.9,29,1.2,49.6,1.2S87,17.9,87,38.5z"/>
		<circle class="st1" cx="49.6" cy="38.8" r="27.6"/>
	</g>
</g>
<g id="Warstwa_2">
	<ellipse transform="matrix(0.9533 -0.3019 0.3019 0.9533 -13.8959 13.6789)" class="st2" cx="37.3" cy="51.8" rx="7.7" ry="5"/>
	<ellipse transform="matrix(0.9533 -0.3019 0.3019 0.9533 -12.0437 20.2992)" class="st2" cx="59.6" cy="49.1" rx="7.7" ry="5"/>
	<line class="st3" x1="42.1" y1="49.7" x2="42.1" y2="22.9"/>
	<line class="st3" x1="64.6" y1="46.6" x2="64.6" y2="19.7"/>
	<line class="st3" x1="42.1" y1="22.9" x2="64.6" y2="19.7"/>
	<line class="st3" x1="42.1" y1="30.8" x2="64.6" y2="27.6"/>
</g>
</svg>
