<?xml version="1.0" encoding="utf-8"?>
<!-- Generator: Adobe Illustrator 27.3.1, SVG Export Plug-In . SVG Version: 6.00 Build 0)  -->
<svg version="1.1" xmlns="http://www.w3.org/2000/svg" xmlns:xlink="http://www.w3.org/1999/xlink" x="0px" y="0px"
	 viewBox="0 0 100 100" style="enable-background:new 0 0 100 100;" xml:space="preserve">
<style type="text/css">
	.st0{fill:#1D56FF;}
	.st1{display:none;opacity:0.39;fill:#1D56FF;enable-background:new    ;}
	.st2{fill:#FFFFFF;}
	.st3{fill:none;stroke:#1D56FF;stroke-width:5;stroke-miterlimit:10;}
</style>
<g id="Warstwa_1">
	<g id="Warstwa_1_00000078005188123056169380000016053883607370337431_">
		<path class="st0" d="M87,38.5c0,32.1-36.7,60.4-36.7,60.4s-38-28-38-60.4C12.2,17.9,29,1.2,49.6,1.2S87,17.9,87,38.5z"/>
		<circle class="st1" cx="49.6" cy="38.8" r="27.6"/>
	</g>
</g>
<g id="Warstwa_2">
	<path class="st2" d="M69.3,54.7h-37c0,0-1.5-15.3,0-14.7c20.1,12.2,25-15.7,37,0C69.9,42,69.3,54.7,69.3,54.7z"/>
	<path class="st3" d="M64.8,54.3H37c-2.9,0-5.3-2.4-5.3-5.3V29.4c0-2.9,2.4-5.3,5.3-5.3h27.8c2.9,0,5.3,2.4,5.3,5.3V49
		C70.1,51.9,67.7,54.3,64.8,54.3z"/>
	<g>
		<path class="st2" d="M64.8,24.1c2.9,0,5.3,2.4,5.3,5.3V49c0,2.9-2.4,5.3-5.3,5.3H37c-2.9,0-5.3-2.4-5.3-5.3V29.4
			c0-2.9,2.4-5.3,5.3-5.3H64.8 M64.8,19.1H37c-5.7,0-10.3,4.6-10.3,10.3V49c0,5.7,4.6,10.3,10.3,10.3h27.8c5.7,0,10.3-4.6,10.3-10.3
			V29.4C75.1,23.7,70.5,19.1,64.8,19.1L64.8,19.1z"/>
	</g>
	<circle class="st2" cx="41.3" cy="32.6" r="3.1"/>
</g>
</svg>
