<?xml version="1.0" encoding="utf-8"?>
<!-- Generator: Adobe Illustrator 27.3.1, SVG Export Plug-In . SVG Version: 6.00 Build 0)  -->
<svg version="1.1" xmlns="http://www.w3.org/2000/svg" xmlns:xlink="http://www.w3.org/1999/xlink" x="0px" y="0px"
	 viewBox="0 0 100 100" style="enable-background:new 0 0 100 100;" xml:space="preserve">
<style type="text/css">
	.st0{fill:#F22EAC;}
	.st1{display:none;opacity:0.35;fill:#F22EAC;enable-background:new    ;}
	.st2{fill:none;stroke:#FFFFFF;stroke-width:5;stroke-linecap:round;stroke-miterlimit:10;}
	.st3{fill:#FFFFFF;}
	.st4{fill:none;stroke:#F22EAC;stroke-width:3;stroke-miterlimit:10;}
</style>
<g id="Warstwa_1">
	<g id="Warstwa_1_00000150095184297999121760000001411023287140291752_">
		<path class="st0" d="M87,38.5c0,32.1-36.7,60.4-36.7,60.4s-38-28-38-60.4C12.2,17.9,29,1.2,49.6,1.2S87,17.9,87,38.5z"/>
		<circle class="st1" cx="49.6" cy="38.8" r="27.6"/>
	</g>
</g>
<g id="Warstwa_2">
	<path class="st2" d="M30.9,27.8"/>
	<circle class="st3" cx="50" cy="37.5" r="22.2"/>
	<path class="st4" d="M24.6,37.5c17.4-4.9,34.4-4.9,51.2,0"/>
	<line class="st4" x1="49.9" y1="12.9" x2="49.9" y2="66.8"/>
	<path class="st4" d="M32.3,18.5L21.2,30.6l0.5,20.4c0.8,0.1,1.6,0.2,2.4,0.2c9.6,0,17.4-7.8,17.4-17.4
		C41.5,27.2,37.8,21.5,32.3,18.5z"/>
	<path class="st4" d="M68.2,18.5l11.1,12.1l-0.5,20.4c-0.8,0.1-1.6,0.2-2.4,0.2c-9.6,0-17.4-7.8-17.4-17.4
		C59,27.2,62.7,21.5,68.2,18.5z"/>
</g>
</svg>
