<?xml version="1.0" encoding="utf-8"?>
<!-- Generator: Adobe Illustrator 27.3.1, SVG Export Plug-In . SVG Version: 6.00 Build 0)  -->
<svg version="1.1" id="Warstwa_1" xmlns="http://www.w3.org/2000/svg" xmlns:xlink="http://www.w3.org/1999/xlink" x="0px" y="0px"
	 viewBox="0 0 100 100" style="enable-background:new 0 0 100 100;" xml:space="preserve">
<style type="text/css">
	.st0{fill:#AA669F;}
	.st1{fill:none;stroke:#FFFFFF;stroke-width:6;stroke-linecap:round;stroke-miterlimit:10;}
	.st2{fill:#FFFFFF;}
	.st3{fill:none;stroke:#AA669F;stroke-width:5;stroke-linecap:round;stroke-miterlimit:10;}
</style>
<g id="Warstwa_1_00000105422509686131510250000012499883448241207682_">
	<path class="st0" d="M87.86,38.53c0,32.09-36.71,60.38-36.71,60.38S13.12,70.92,13.12,38.53c0-20.64,16.73-37.37,37.37-37.37
		S87.86,17.89,87.86,38.53z"/>
</g>
<line class="st1" x1="31.69" y1="55.93" x2="68.6" y2="55.93"/>
<path class="st2" d="M58.21,20.62h-16c-0.86,0-1.69,0.36-2.22,1.03c-1.07,1.36-1.79,3-2.01,4.8L34.8,52.21
	c-0.21,1.72,1.13,3.25,2.87,3.25h24.96c1.73,0,3.08-1.51,2.87-3.23L62.45,26.5c-0.22-1.82-0.94-3.47-2.02-4.84
	C59.9,20.99,59.06,20.62,58.21,20.62z"/>
<line class="st3" x1="43.74" y1="50.94" x2="55.96" y2="50.94"/>
</svg>
