<?xml version="1.0" encoding="utf-8"?>
<!-- Generator: Adobe Illustrator 27.3.1, SVG Export Plug-In . SVG Version: 6.00 Build 0)  -->
<svg version="1.1" xmlns="http://www.w3.org/2000/svg" xmlns:xlink="http://www.w3.org/1999/xlink" x="0px" y="0px"
	 viewBox="0 0 100 100" style="enable-background:new 0 0 100 100;" xml:space="preserve">
<style type="text/css">
	.st0{fill:#00BDD2;}
	.st1{display:none;opacity:0.35;fill:#FFFFFF;enable-background:new    ;}
	.st2{fill:#FFFFFF;}
	.st3{fill:none;stroke:#FFFFFF;stroke-width:5;stroke-miterlimit:10;}
	.st4{fill:none;stroke:#FFFFFF;stroke-width:3;stroke-miterlimit:10;}
</style>
<g id="Warstwa_1">
	<g id="Warstwa_1_00000150095184297999121760000001411023287140291752_">
		<path class="st0" d="M87,38.5c0,32.1-36.7,60.4-36.7,60.4s-38-28-38-60.4C12.2,17.9,29,1.2,49.6,1.2S87,17.9,87,38.5z"/>
		<circle class="st1" cx="49.6" cy="38.8" r="27.6"/>
	</g>
</g>
<g id="Warstwa_2">
	<path class="st2" d="M70.9,47.1H29.1c-3.2,0-5.6-2.6-5.2-5.5l0.7-5.3c0.3-2.1,2-3.8,4.2-4.2L40.3,30c0.3-0.1,0.7-0.1,1.1-0.1h23.2
		c0.5,0,0.9,0.1,1.4,0.2l5.4,1.4c2,0.5,3.5,2.1,3.8,4l0.9,6.1C76.6,44.5,74.1,47.1,70.9,47.1z"/>
	<path class="st3" d="M61.7,37.2H44.1c-3,0-5.1-2.5-4.2-5l0,0l2.9-7.9c0.6-1.6,2.3-2.7,4.2-2.7h12.1c2,0,3.7,1.1,4.2,2.8l2.6,7.9
		C66.7,34.7,64.6,37.2,61.7,37.2z"/>
	<line class="st4" x1="52.9" y1="21.6" x2="52.9" y2="36.2"/>
	<g>
		<path class="st2" d="M37.1,54.3c-3.8,0-6.9-3.1-6.9-6.9s3.1-6.9,6.9-6.9s6.9,3.1,6.9,6.9S40.9,54.3,37.1,54.3z"/>
		<path class="st0" d="M37.1,41.9c3,0,5.4,2.4,5.4,5.4s-2.4,5.4-5.4,5.4s-5.4-2.4-5.4-5.4S34.1,41.9,37.1,41.9 M37.1,38.9
			c-4.6,0-8.4,3.8-8.4,8.4s3.8,8.4,8.4,8.4s8.4-3.8,8.4-8.4S41.7,38.9,37.1,38.9L37.1,38.9z"/>
	</g>
	<g>
		<path class="st2" d="M64.2,54.3c-3.8,0-6.9-3.1-6.9-6.9s3.1-6.9,6.9-6.9c3.8,0,6.9,3.1,6.9,6.9S68,54.3,64.2,54.3z"/>
		<path class="st0" d="M64.2,41.9c3,0,5.4,2.4,5.4,5.4s-2.4,5.4-5.4,5.4c-3,0-5.4-2.4-5.4-5.4S61.2,41.9,64.2,41.9 M64.2,38.9
			c-4.6,0-8.4,3.8-8.4,8.4s3.8,8.4,8.4,8.4c4.6,0,8.4-3.8,8.4-8.4S68.9,38.9,64.2,38.9L64.2,38.9z"/>
	</g>
</g>
</svg>
