<?xml version="1.0" encoding="utf-8"?>
<!-- Generator: Adobe Illustrator 27.3.1, SVG Export Plug-In . SVG Version: 6.00 Build 0)  -->
<svg version="1.1" xmlns="http://www.w3.org/2000/svg" xmlns:xlink="http://www.w3.org/1999/xlink" x="0px" y="0px"
	 viewBox="0 0 100 100" style="enable-background:new 0 0 100 100;" xml:space="preserve">
<style type="text/css">
	.st0{fill:#F22EAC;}
	.st1{display:none;opacity:0.35;fill:#F22EAC;enable-background:new    ;}
	.st2{fill:none;stroke:#FFFFFF;stroke-width:5;stroke-linecap:round;stroke-miterlimit:10;}
	.st3{fill:#FFFFFF;}
</style>
<g id="Warstwa_1">
	<g id="Warstwa_1_00000150095184297999121760000001411023287140291752_">
		<path class="st0" d="M87,38.5c0,32.1-36.7,60.4-36.7,60.4s-38-28-38-60.4C12.2,17.9,29,1.2,49.6,1.2S87,17.9,87,38.5z"/>
		<circle class="st1" cx="49.6" cy="38.8" r="27.6"/>
	</g>
</g>
<g id="Warstwa_2">
	<line class="st2" x1="26.1" y1="38.4" x2="73.2" y2="38.4"/>
	<g>
		<path class="st3" d="M62.9,51.9c-2.5,0-4.6-2.1-4.6-4.6V29.6c0-2.5,2.1-4.6,4.6-4.6h2.5c2.5,0,4.6,2.1,4.6,4.6v17.7
			c0,2.5-2.1,4.6-4.6,4.6H62.9z"/>
		<path class="st0" d="M65.4,26.5c1.7,0,3.1,1.4,3.1,3.1v17.7c0,1.7-1.4,3.1-3.1,3.1h-2.5c-1.7,0-3.1-1.4-3.1-3.1V29.6
			c0-1.7,1.4-3.1,3.1-3.1H65.4 M65.4,23.5h-2.5c-3.4,0-6.1,2.7-6.1,6.1v17.7c0,3.4,2.7,6.1,6.1,6.1h2.5c3.4,0,6.1-2.7,6.1-6.1V29.6
			C71.5,26.2,68.7,23.5,65.4,23.5L65.4,23.5z"/>
	</g>
	<g>
		<path class="st3" d="M33.9,51.9c-2.5,0-4.6-2.1-4.6-4.6V29.6c0-2.5,2.1-4.6,4.6-4.6h2.5c2.5,0,4.6,2.1,4.6,4.6v17.7
			c0,2.5-2.1,4.6-4.6,4.6H33.9z"/>
		<path class="st0" d="M36.4,26.5c1.7,0,3.1,1.4,3.1,3.1v17.7c0,1.7-1.4,3.1-3.1,3.1h-2.5c-1.7,0-3.1-1.4-3.1-3.1V29.6
			c0-1.7,1.4-3.1,3.1-3.1H36.4 M36.4,23.5h-2.5c-3.4,0-6.1,2.7-6.1,6.1v17.7c0,3.4,2.7,6.1,6.1,6.1h2.5c3.4,0,6.1-2.7,6.1-6.1V29.6
			C42.5,26.2,39.8,23.5,36.4,23.5L36.4,23.5z"/>
	</g>
</g>
</svg>
