<?xml version="1.0" encoding="utf-8"?>
<!-- Generator: Adobe Illustrator 27.3.1, SVG Export Plug-In . SVG Version: 6.00 Build 0)  -->
<svg version="1.1" xmlns="http://www.w3.org/2000/svg" xmlns:xlink="http://www.w3.org/1999/xlink" x="0px" y="0px"
	 viewBox="0 0 100 100" style="enable-background:new 0 0 100 100;" xml:space="preserve">
<style type="text/css">
	.st0{fill:#D60000;}
	.st1{display:none;opacity:0.35;fill:#FFFFFF;}
	.st2{fill:none;stroke:#FFFFFF;stroke-width:4;stroke-linecap:round;stroke-miterlimit:10;}
	.st3{fill:#FFFFFF;}
</style>
<g id="Warstwa_1">
	<path class="st0" d="M87,38.5c0,32.1-36.7,60.4-36.7,60.4s-38-28-38-60.4C12.2,17.9,29,1.2,49.6,1.2S87,17.9,87,38.5z"/>
	<circle class="st1" cx="49.6" cy="38.8" r="27.6"/>
</g>
<g id="Warstwa_2">
	<line class="st2" x1="42.4" y1="19.2" x2="42.4" y2="61.2"/>
	<path class="st2" d="M36.5,19.2v6.7c0,3,2,5.3,4.5,5.3h2.9c2.5,0,4.5-2.4,4.5-5.3v-6.7"/>
	<line class="st2" x1="60.2" y1="19.2" x2="60.2" y2="61.2"/>
	<path class="st2" d="M60.2,44.2"/>
	<path class="st2" d="M58,20.9"/>
	<path class="st3" d="M58.9,46.1h-1.7c-2.3,0-4.3-1.9-4.3-4.2c-0.3-18.8,2.3-22.6,6-24.4V46.1z"/>
</g>
</svg>
