<?xml version="1.0" encoding="utf-8"?>
<!-- Generator: Adobe Illustrator 27.3.1, SVG Export Plug-In . SVG Version: 6.00 Build 0)  -->
<svg version="1.1" xmlns="http://www.w3.org/2000/svg" xmlns:xlink="http://www.w3.org/1999/xlink" x="0px" y="0px"
	 viewBox="0 0 100 100" style="enable-background:new 0 0 100 100;" xml:space="preserve">
<style type="text/css">
	.st0{fill:#1D56FF;}
	.st1{display:none;opacity:0.39;fill:#1D56FF;enable-background:new    ;}
	.st2{fill:#FFFFFF;}
	.st3{fill:none;stroke:#1D56FF;stroke-width:4;stroke-linecap:round;stroke-miterlimit:10;}
</style>
<g id="Warstwa_1">
	<g id="Warstwa_1_00000078005188123056169380000016053883607370337431_">
		<path class="st0" d="M87,38.5c0,32.1-36.7,60.4-36.7,60.4s-38-28-38-60.4C12.2,17.9,29,1.2,49.6,1.2S87,17.9,87,38.5z"/>
		<circle class="st1" cx="49.6" cy="38.8" r="27.6"/>
	</g>
</g>
<g id="Warstwa_2">
	<path class="st2" d="M57,60.1c-1.6,1-3.6,0.7-4.9-0.5c-3.3-3.1-9.2-9-10.6-13.5C40.3,42.2,41,33.8,41.7,28c0.3-2.1,2.8-3,4.4-1.6
		c2.3,2,5.5,2.9,9.3-0.5c1.2-1.1,3.3-0.9,4.1,0.5c3,4.8,7.1,4.1,10.2,2.3c1.9-1.1,4.2,0.3,4,2.4C73.4,36.9,72.6,45,71,48.3
		C69.1,52.4,61.2,57.6,57,60.1z"/>
	<g>
		<path class="st2" d="M45.1,58.1c-1.1,0-2.2-0.3-3.1-0.9c-5-3-11.5-7.5-13.9-11.7c-1.7-3.1-3-9.3-3.9-18.6
			c-0.1-1.3,0.3-2.5,1.1-3.5c0.9-1,2.2-1.5,3.5-1.5c0.8,0,1.6,0.2,2.3,0.6c0.9,0.5,1.7,0.7,2.4,0.7c1.4,0,2.7-0.9,4-2.6
			c0.9-1.2,2.4-2,3.9-2c1.3,0,2.4,0.5,3.3,1.4c1.2,1.3,2.5,1.9,3.7,1.9c1.6,0,3-1,4-1.9c0.9-0.8,2-1.3,3.2-1.3c2.4,0,4.3,1.7,4.6,4
			c1.3,9,1.5,15.1,0.8,18.2c-1.1,4.5-7,10.9-11.7,15.5C48.1,57.6,46.6,58.1,45.1,58.1z"/>
		<path class="st0" d="M41.4,20.7c0.7,0,1.4,0.3,1.9,0.8c1.8,1.8,3.5,2.5,5.1,2.5c2,0,3.8-1.1,5.3-2.4c0.5-0.5,1.2-0.7,1.8-0.7
			c1.2,0,2.5,0.9,2.7,2.3c0.8,5.8,1.7,13.9,0.8,17.5c-1,4.3-7.6,11.1-11.2,14.5c-0.8,0.7-1.8,1.1-2.8,1.1c-0.7,0-1.4-0.2-2.1-0.6
			c-3.9-2.3-10.9-6.9-13.2-11c-2-3.5-3.1-11.9-3.6-17.8C26,25.2,27.3,24,28.8,24c0.5,0,0.9,0.1,1.4,0.4c1.1,0.6,2.2,1,3.4,1
			c1.8,0,3.8-0.9,5.6-3.5C39.7,21.1,40.5,20.7,41.4,20.7 M41.4,16.7c-2.2,0-4.3,1.1-5.5,2.8c-0.6,0.8-1.5,1.8-2.3,1.8
			c-0.4,0-0.9-0.2-1.4-0.5c-1-0.6-2.2-0.9-3.3-0.9c-1.9,0-3.7,0.8-5,2.2c-1.2,1.4-1.8,3.1-1.7,5c0.9,9.6,2.3,16.1,4.1,19.4
			c2.6,4.6,9.4,9.3,14.6,12.5c1.3,0.7,2.7,1.1,4.1,1.1c2.1,0,4.1-0.8,5.6-2.2C57.8,51,62,45.5,62.9,41.5c0.3-1.3,1.2-5.1-0.8-19
			c-0.5-3.3-3.2-5.7-6.6-5.7c-1.7,0-3.3,0.6-4.5,1.8c-0.9,0.9-1.9,1.4-2.6,1.4c-0.7,0-1.4-0.4-2.3-1.3
			C44.9,17.4,43.2,16.7,41.4,16.7L41.4,16.7z"/>
	</g>
	<path class="st3" d="M40.2,42.1c2.3,0.8,5,0.8,8.5-1"/>
	<line class="st3" x1="37.6" y1="33.7" x2="37.7" y2="34.9"/>
	<line class="st3" x1="48.7" y1="32.3" x2="48.9" y2="33.6"/>
</g>
</svg>
