<?xml version="1.0" encoding="utf-8"?>
<!-- Generator: Adobe Illustrator 27.3.1, SVG Export Plug-In . SVG Version: 6.00 Build 0)  -->
<svg version="1.1" xmlns="http://www.w3.org/2000/svg" xmlns:xlink="http://www.w3.org/1999/xlink" x="0px" y="0px"
	 viewBox="0 0 100 100" style="enable-background:new 0 0 100 100;" xml:space="preserve">
<style type="text/css">
	.st0{fill:#E66600;}
	.st1{display:none;opacity:0.35;fill:#FFFFFF;}
	.st2{fill:#FFFFFF;}
</style>
<g id="Warstwa_1">
	<path class="st0" d="M87,38.5c0,32.1-36.7,60.4-36.7,60.4s-38-28-38-60.4C12.2,17.9,29,1.2,49.6,1.2S87,17.9,87,38.5z"/>
	<circle class="st1" cx="49.6" cy="38.8" r="27.6"/>
	<path class="st2" d="M75.3,29.5l-10.7-8.3c-0.5-0.4-1-0.7-1.6-0.8C62.4,20.2,61.7,20,61,20h-5.2c0.1,0.4,0.2,0.9,0.2,1.3
		c0,3.2-2.6,5.8-5.8,5.8c-3.2,0-5.8-2.6-5.8-5.8c0-0.5,0.1-0.9,0.2-1.3h-4.1c-0.7,0-1.4,0.2-2.1,0.5c-0.6,0.2-1.1,0.4-1.6,0.8
		l-10.7,8.3c-2,1.6-2.4,4.5-0.8,6.5l3,3.9c1.6,2,4.5,2.4,6.5,0.8l1-0.7v14.3c0,2.6,2.1,4.6,4.6,4.6H61c2.6,0,4.6-2.1,4.6-4.6V40
		l1,0.7c2,1.6,4.9,1.2,6.5-0.8l3-3.9C77.7,34,77.3,31.1,75.3,29.5z"/>
</g>
<g id="Warstwa_2">
</g>
</svg>
