<?xml version="1.0" encoding="utf-8"?>
<!-- Generator: Adobe Illustrator 27.3.1, SVG Export Plug-In . SVG Version: 6.00 Build 0)  -->
<svg version="1.1" xmlns="http://www.w3.org/2000/svg" xmlns:xlink="http://www.w3.org/1999/xlink" x="0px" y="0px"
	 viewBox="0 0 100 100" style="enable-background:new 0 0 100 100;" xml:space="preserve">
<style type="text/css">
	.st0{fill:#64AA53;}
	.st1{display:none;opacity:0.39;fill:#FFFFFF;}
	.st2{fill:none;stroke:#FFFFFF;stroke-width:5;stroke-linecap:round;stroke-miterlimit:10;}
</style>
<g id="Warstwa_1">
	<path class="st0" d="M86.96,38.54c0,32.09-36.71,60.38-36.71,60.38S12.22,70.93,12.22,38.54c0-20.64,16.73-37.37,37.37-37.37
		S86.96,17.9,86.96,38.54z"/>
	<circle class="st1" cx="49.59" cy="38.81" r="27.59"/>
</g>
<g id="Warstwa_2">
	<path class="st2" d="M23.86,33.1c5.48-0.2,8.65-2.83,11.54-4.93c1.6,6.92,7.26,6.16,14.77,0.77c3.04,6.97,9.14,4.06,14.03,0.46"/>
	<path class="st2" d="M34.45,48.83c5.48-0.2,8.65-2.83,11.54-4.93c1.6,6.92,7.26,6.16,14.77,0.77c3.04,6.97,9.14,4.06,14.03,0.46"/>
</g>
</svg>
