<?xml version="1.0" encoding="utf-8"?>
<!-- Generator: Adobe Illustrator 27.3.1, SVG Export Plug-In . SVG Version: 6.00 Build 0)  -->
<svg version="1.1" xmlns="http://www.w3.org/2000/svg" xmlns:xlink="http://www.w3.org/1999/xlink" x="0px" y="0px"
	 viewBox="0 0 100 100" style="enable-background:new 0 0 100 100;" xml:space="preserve">
<style type="text/css">
	.st0{fill:#AA669F;}
	.st1{display:none;opacity:0.39;fill:#FFFFFF;}
	.st2{fill:#FFFFFF;}
	.st3{fill:none;stroke:#FFFFFF;stroke-width:5;stroke-linecap:round;stroke-miterlimit:10;}
</style>
<g id="Warstwa_1">
	<path class="st0" d="M86.96,38.54c0,32.09-36.71,60.38-36.71,60.38S12.22,70.93,12.22,38.54c0-20.64,16.73-37.37,37.37-37.37
		S86.96,17.9,86.96,38.54z"/>
	<circle class="st1" cx="49.59" cy="38.81" r="27.59"/>
</g>
<g id="Warstwa_2">
	<path class="st2" d="M70.07,55.56H29.93c-2.31,0-4.18-1.87-4.18-4.18V38.87c0-2.31,1.87-4.18,4.18-4.18h40.15
		c2.31,0,4.18,1.87,4.18,4.18v12.51C74.26,53.69,72.38,55.56,70.07,55.56z"/>
	<rect x="25.74" y="26.2" class="st2" width="15.7" height="20.16"/>
	<rect x="58.55" y="26.2" class="st2" width="15.7" height="20.16"/>
	<line class="st3" x1="28.22" y1="24.45" x2="28.22" y2="32.37"/>
	<line class="st3" x1="35.96" y1="24.36" x2="35.96" y2="32.28"/>
	<line class="st3" x1="43.39" y1="24.45" x2="43.39" y2="39.06"/>
	<line class="st3" x1="56.57" y1="24.54" x2="56.57" y2="38.29"/>
	<line class="st3" x1="64.31" y1="24.45" x2="64.31" y2="32.37"/>
	<line class="st3" x1="71.73" y1="24.54" x2="71.73" y2="39.15"/>
	<path class="st0" d="M56.06,56.71H43.94V48.6c0-3.1,2.51-5.62,5.62-5.62h0.89c3.1,0,5.62,2.51,5.62,5.62V56.71z"/>
</g>
</svg>
