<?xml version="1.0" encoding="utf-8"?>
<!-- Generator: Adobe Illustrator 27.3.1, SVG Export Plug-In . SVG Version: 6.00 Build 0)  -->
<svg version="1.1" id="Warstwa_1" xmlns="http://www.w3.org/2000/svg" xmlns:xlink="http://www.w3.org/1999/xlink" x="0px" y="0px"
	 viewBox="0 0 100 100" style="enable-background:new 0 0 100 100;" xml:space="preserve">
<style type="text/css">
	.st0{fill:#F40014;}
	.st1{display:none;opacity:0.35;fill:#F40014;enable-background:new    ;}
	.st2{fill:none;stroke:#FFFFFF;stroke-width:5;stroke-linecap:round;stroke-miterlimit:10;}
	.st3{fill:#FFFFFF;}
</style>
<g id="Warstwa_1_00000010300602008791265450000014142886368750648487_">
	<g id="Warstwa_1_00000150095184297999121760000001411023287140291752_">
		<path class="st0" d="M88.2,38.2c0,32.9-37.5,61.7-37.5,61.7S11.8,71.4,11.8,38.2C11.8,17.3,28.9,0.1,50,0.1S88.2,17.3,88.2,38.2z"
			/>
		<circle class="st1" cx="50" cy="38.6" r="28.2"/>
	</g>
</g>
<g id="Warstwa_2_00000045615449417044659820000014829440013461310905_">
	<path class="st2" d="M30.9,27.8"/>
</g>
<path class="st3" d="M60.1,22.7c-5.6,0-10.1,5.5-10.1,7.4c0-2.1-4.5-7.4-10.1-7.4s-10.1,5-10.1,11.2C29.9,49.6,50,59.8,50,59.8
	s20.1-10.2,20.1-25.9C70.1,27.7,65.6,22.7,60.1,22.7z"/>
</svg>
